<?xml version="1.0" standalone="no"?>
<!DOCTYPE svg PUBLIC "-//W3C//DTD SVG 20010904//EN"
 "http://www.w3.org/TR/2001/REC-SVG-20010904/DTD/svg10.dtd">
<svg version="1.0" xmlns="http://www.w3.org/2000/svg"
 width="512.000000pt" height="512.000000pt" viewBox="0 0 512.000000 512.000000"
 preserveAspectRatio="xMidYMid meet">
<metadata>
Created by potrace 1.14, written by Peter Selinger 2001-2017
</metadata>
<g transform="translate(0.000000,512.000000) scale(0.100000,-0.100000)"
fill="#000000" stroke="none">
<path d="M3471 5078 c-22 -24 -41 -49 -41 -55 0 -7 -4 -13 -8 -13 -18 0 -67
-145 -78 -232 -7 -47 -37 -146 -59 -193 -27 -56 -51 -76 -116 -99 -35 -13 -71
-26 -79 -29 -12 -5 -23 13 -48 81 -71 188 -128 269 -219 312 -51 24 -75 28
-188 36 -49 3 -96 7 -104 10 -19 6 -61 -23 -61 -43 0 -19 39 -105 51 -113 11
-8 68 -134 73 -162 3 -13 5 -24 7 -25 1 -2 2 -6 3 -10 4 -19 42 -82 75 -126
40 -53 128 -126 184 -153 21 -10 37 -21 37 -26 0 -4 7 -8 16 -8 11 0 13 -6 9
-19 -12 -39 -8 -138 9 -196 17 -60 74 -164 119 -219 l24 -29 -29 -76 c-16 -42
-35 -89 -42 -106 -8 -16 -17 -40 -21 -52 -3 -13 -11 -23 -16 -23 -5 0 -9 -7
-9 -16 0 -29 -122 -204 -142 -204 -61 0 -144 -81 -237 -232 -146 -235 -184
-346 -156 -459 7 -25 -12 -51 -138 -199 -12 -14 -35 -44 -50 -66 -25 -36 -33
-42 -66 -42 -112 -2 -202 -35 -275 -102 -38 -35 -83 -106 -93 -145 -1 -5 -6
-27 -12 -48 -9 -38 -7 -221 4 -265 3 -12 7 -30 9 -40 14 -61 21 -81 37 -114
l19 -36 -35 -57 c-18 -31 -43 -83 -53 -115 -14 -39 -33 -70 -60 -96 -38 -36
-48 -41 -99 -49 -11 -1 -29 -6 -40 -9 -65 -19 -358 -27 -458 -12 -88 13 -161
27 -175 33 -8 3 -28 8 -44 10 -16 3 -81 23 -145 45 -153 53 -189 60 -200 40
-20 -35 41 -97 179 -184 123 -76 378 -208 404 -208 4 0 26 -9 49 -19 24 -11
56 -23 72 -27 17 -4 35 -10 40 -14 6 -4 24 -10 40 -13 17 -4 64 -16 105 -27
41 -11 102 -25 135 -30 33 -5 71 -12 85 -15 114 -23 483 -23 618 0 20 3 22 0
22 -41 0 -70 -31 -120 -110 -175 -87 -60 -96 -63 -245 -65 -129 -1 -193 -5
-315 -20 -50 -6 -244 -52 -269 -63 -170 -79 -231 -128 -251 -202 -15 -54 -2
-94 45 -145 55 -61 120 -84 231 -81 77 2 87 5 170 50 85 45 276 140 319 157
98 40 283 102 375 125 88 23 83 22 185 45 155 36 235 96 235 176 0 31 -13 60
-60 134 -32 52 -57 96 -55 98 2 2 28 -1 57 -8 112 -27 346 -9 451 35 38 16 9
-55 -47 -115 -74 -79 -93 -135 -61 -184 23 -35 87 -49 201 -43 55 3 99 6 99 7
0 2 3 2 105 21 122 22 242 33 365 33 117 0 284 -15 345 -30 14 -4 36 -8 50
-10 43 -5 112 -25 210 -61 52 -20 106 -37 120 -40 14 -2 43 -9 65 -15 52 -14
179 -13 231 1 22 6 48 19 57 28 26 26 76 133 66 139 -5 3 -9 14 -9 25 0 11
-20 40 -45 65 -78 77 -228 136 -433 170 -97 17 -364 5 -492 -21 -14 -2 -36 -7
-50 -10 -163 -32 -360 -37 -480 -11 -29 6 -59 39 -56 61 2 15 115 192 138 216
7 8 29 34 49 59 20 25 65 74 99 110 165 171 266 317 312 455 23 70 32 209 17
257 -54 166 -126 233 -262 242 -21 1 -41 -2 -43 -6 -3 -5 -9 -6 -14 -3 -5 3
-21 0 -36 -5 -31 -12 -41 -6 -48 30 -24 118 -45 233 -50 270 -3 25 -9 58 -11
74 -6 32 -14 96 -21 171 l-4 50 58 3 c65 3 147 10 178 16 12 3 37 7 57 10 122
19 284 76 453 157 75 37 129 57 143 54 15 -3 31 4 49 22 21 21 37 27 75 28 26
1 53 7 58 12 6 6 27 9 47 6 41 -5 73 18 109 79 34 56 37 85 10 112 -14 14 -27
36 -31 51 -4 16 -18 31 -37 39 l-30 13 35 26 c46 36 54 62 26 92 -16 17 -29
22 -53 18 -62 -10 -184 -116 -254 -222 -70 -105 -114 -134 -223 -146 -90 -11
-276 -12 -330 -3 -25 4 -63 10 -85 14 -51 8 -219 63 -241 78 -14 11 -17 38
-18 198 l-2 185 43 -13 c24 -7 62 -16 85 -19 24 -4 46 -9 51 -12 4 -2 27 -6
50 -8 48 -4 95 13 133 48 21 20 32 23 62 17 156 -28 308 63 295 175 -2 17 -3
37 -3 45 0 8 1 27 1 43 1 15 -4 33 -10 41 -23 27 -81 47 -130 45 -58 -3 -142
34 -203 89 -33 29 -38 40 -33 61 14 55 14 64 -4 101 l-18 37 29 16 c15 9 28
22 28 28 0 7 -11 2 -25 -11 -30 -28 -44 -21 -21 12 9 12 16 32 15 43 -1 20 -1
20 -7 0 -4 -11 -13 -30 -21 -42 -14 -21 -15 -21 -41 15 -34 47 -151 142 -210
172 -58 29 -57 27 -33 53 28 30 124 167 118 167 -3 0 3 17 14 38 23 44 39 125
34 168 -4 32 -61 192 -76 212 -16 21 -34 14 -76 -30z"/>
<path d="M3722 4300 c0 -14 2 -19 5 -12 2 6 2 18 0 25 -3 6 -5 1 -5 -13z"/>
</g>
</svg>
