<?xml version="1.0" standalone="no"?>
<!DOCTYPE svg PUBLIC "-//W3C//DTD SVG 20010904//EN"
 "http://www.w3.org/TR/2001/REC-SVG-20010904/DTD/svg10.dtd">
<svg version="1.0" xmlns="http://www.w3.org/2000/svg"
 width="700.000000pt" height="700.000000pt" viewBox="0 0 700.000000 700.000000"
 preserveAspectRatio="xMidYMid meet">
<metadata>
Created by potrace 1.14, written by Peter Selinger 2001-2017
</metadata>
<g transform="translate(0.000000,700.000000) scale(0.100000,-0.100000)"
fill="#000000" stroke="none">
<path d="M4454 6990 c-25 -10 -156 -167 -147 -177 1 -2 -9 -27 -22 -58 -14
-30 -38 -122 -55 -204 -32 -156 -69 -262 -121 -342 -26 -42 -36 -49 -82 -59
-29 -7 -79 -25 -112 -40 -33 -16 -60 -28 -61 -27 -1 1 -27 70 -60 152 -32 83
-72 175 -90 205 -82 142 -211 222 -374 235 -242 18 -249 18 -276 0 -23 -15
-26 -22 -21 -56 3 -22 30 -81 60 -133 30 -51 69 -133 87 -182 53 -146 96 -225
164 -302 40 -46 169 -143 241 -182 l72 -40 -9 -58 c-26 -161 47 -371 183 -529
l28 -32 -29 -85 c-62 -184 -147 -357 -248 -501 -38 -54 -58 -75 -74 -75 -37 0
-106 -40 -158 -90 -59 -58 -201 -272 -281 -425 -101 -192 -135 -337 -97 -412
16 -32 16 -33 -14 -74 -17 -23 -74 -95 -127 -159 -53 -64 -110 -138 -128 -163
l-32 -46 -69 0 c-199 0 -366 -98 -449 -262 -39 -79 -54 -144 -58 -259 -6 -155
27 -337 83 -459 l20 -43 -37 -57 c-39 -57 -101 -197 -101 -225 0 -24 -99 -124
-134 -135 -17 -5 -44 -12 -61 -15 -16 -3 -57 -10 -90 -15 -337 -59 -734 -17
-1130 120 -157 54 -210 65 -230 49 -13 -11 -13 -16 1 -48 30 -73 119 -141 374
-286 180 -103 315 -167 500 -238 94 -36 304 -101 363 -112 12 -2 45 -10 72
-16 74 -17 198 -39 253 -45 206 -21 394 -24 587 -12 104 7 142 11 209 22 l29
5 -5 -75 c-4 -59 -10 -83 -32 -116 -43 -64 -112 -121 -212 -173 -50 -26 -55
-26 -280 -31 -126 -2 -242 -6 -259 -9 -16 -3 -55 -7 -85 -10 -312 -31 -629
-159 -719 -290 -69 -101 -63 -179 22 -272 77 -84 150 -114 287 -115 113 -1
166 16 321 102 177 98 238 127 393 189 207 82 444 155 696 215 167 39 215 57
284 104 104 72 119 169 41 278 -50 70 -118 184 -112 189 3 3 33 -3 68 -13 50
-13 100 -17 229 -16 166 0 246 12 383 56 26 8 47 12 47 8 0 -35 -39 -105 -86
-154 -105 -112 -130 -180 -92 -249 24 -43 56 -58 136 -67 91 -10 194 0 458 44
180 30 288 39 464 39 293 0 573 -44 790 -125 58 -21 159 -53 225 -70 111 -29
129 -31 240 -26 66 3 137 11 158 18 41 14 87 54 87 76 0 7 12 31 26 53 57 86
26 172 -92 256 -133 95 -304 153 -544 185 -47 6 -143 12 -215 13 -153 1 -269
-8 -395 -30 -89 -15 -210 -36 -235 -40 -133 -23 -391 -25 -505 -3 -112 20
-141 58 -104 132 57 111 252 367 388 507 219 227 343 409 408 599 30 88 33
106 33 221 0 113 -3 132 -28 197 -75 191 -198 275 -379 259 -39 -3 -74 -9 -79
-12 -5 -3 -20 -7 -33 -10 -22 -4 -25 1 -46 92 -19 83 -36 177 -56 304 -3 19
-11 73 -19 120 -13 83 -17 117 -31 250 l-6 65 61 0 c62 -1 171 8 246 19 22 3
58 9 80 12 178 27 462 126 675 237 59 31 110 50 135 52 61 3 78 12 103 50 20
31 25 34 44 24 24 -13 93 -4 124 16 15 9 32 11 55 6 47 -11 68 -1 112 50 55
64 54 62 70 116 17 58 8 91 -31 108 -15 6 -22 18 -22 36 0 38 -42 79 -81 79
-32 0 -32 0 24 38 60 40 88 83 70 110 -5 9 -21 25 -36 36 -24 17 -30 18 -69 7
-90 -27 -214 -139 -329 -296 -40 -55 -84 -110 -98 -123 -46 -41 -114 -70 -181
-77 -36 -3 -78 -8 -95 -11 -39 -5 -324 -5 -350 0 -11 2 -47 7 -80 11 -32 3
-62 8 -65 10 -3 2 -22 6 -42 9 -50 8 -212 61 -272 90 l-49 23 -3 239 c-1 131
-3 246 -5 254 -5 17 3 17 86 -3 221 -54 280 -59 344 -30 20 9 48 29 63 44 27
28 29 28 131 24 146 -5 230 20 300 91 51 51 61 80 63 194 l1 105 -34 32 c-40
39 -92 54 -170 52 -67 -2 -154 33 -238 96 -76 57 -88 76 -71 117 16 40 10 100
-14 151 -17 35 -18 39 -2 44 24 9 52 34 52 47 0 6 -6 4 -13 -5 -7 -9 -22 -21
-35 -28 -35 -19 -53 1 -47 53 2 22 2 32 -1 21 -12 -47 -14 -47 -42 -9 -16 22
-45 53 -65 69 -19 17 -57 49 -84 72 -50 45 -169 113 -198 113 -12 0 -7 10 19
38 20 20 36 40 36 43 0 3 11 18 23 33 45 52 120 186 145 259 30 86 34 200 9
262 -8 22 -28 74 -44 116 -27 72 -48 110 -62 108 -3 0 -15 -4 -27 -9z m-187
-402 c-3 -8 -6 -5 -6 6 -1 11 2 17 5 13 3 -3 4 -12 1 -19z m-734 -3423 c-3 -9
-8 -14 -10 -11 -3 3 -2 9 2 15 9 16 15 13 8 -4z m-6 -377 c-3 -8 -6 -5 -6 6
-1 11 2 17 5 13 3 -3 4 -12 1 -19z m10 -40 c-3 -8 -6 -5 -6 6 -1 11 2 17 5 13
3 -3 4 -12 1 -19z m11 -49 c-3 -8 -7 -3 -11 10 -4 17 -3 21 5 13 5 -5 8 -16 6
-23z m22 -64 c0 -5 -5 -3 -10 5 -5 8 -10 20 -10 25 0 6 5 3 10 -5 5 -8 10 -19
10 -25z m8 -40 c-3 -3 -9 2 -12 12 -6 14 -5 15 5 6 7 -7 10 -15 7 -18z m9 -37
c-3 -8 -6 -5 -6 6 -1 11 2 17 5 13 3 -3 4 -12 1 -19z m21 -49 c-3 -8 -7 -3
-11 10 -4 17 -3 21 5 13 5 -5 8 -16 6 -23z m197 -399 c10 -11 16 -20 13 -20
-3 0 -13 9 -23 20 -10 11 -16 20 -13 20 3 0 13 -9 23 -20z m90 -68 c-3 -3 -11
0 -18 7 -9 10 -8 11 6 5 10 -3 15 -9 12 -12z m370 -2 c3 -6 -1 -7 -9 -4 -18 7
-21 14 -7 14 6 0 13 -4 16 -10z m-128 -26 c-3 -3 -12 -4 -19 -1 -8 3 -5 6 6 6
11 1 17 -2 13 -5z"/>
<path d="M4791 5909 c0 -15 -11 -39 -23 -54 -14 -18 -17 -26 -7 -23 20 6 41
54 36 81 -4 19 -4 19 -6 -4z"/>
</g>
</svg>
