<svg width="100" height="100" viewBox="0 0 100 100" fill="none" xmlns="http://www.w3.org/2000/svg">
<path d="M97 50C97 75.9579 75.9568 97 50 97C24.0432 97 3 75.9568 3 50C3 24.0432 24.0432 3 50 3C75.9568 3 97 24.0432 97 50Z" fill="#E09900"/>
<path fill-rule="evenodd" clip-rule="evenodd" d="M50.0531 80.8633C48.5715 73.8145 45.959 67.9487 42.7951 62.5119C40.4481 58.4792 37.7294 54.757 35.2138 50.8462C34.374 49.5408 33.6493 48.1616 32.8423 46.8069C31.2288 44.0979 29.9206 40.9567 30.0038 36.8826C30.085 32.9018 31.273 29.7085 32.9861 27.0975C35.8036 22.803 40.5231 19.2823 46.8554 18.357C52.0331 17.6005 56.8874 18.8786 60.3295 20.8294C63.1425 22.4236 65.3211 24.5531 66.9768 27.0626C68.7051 29.682 69.8952 32.7765 69.995 36.8129C70.0461 38.8809 69.6967 40.7959 69.2045 42.3846C68.7063 43.9925 67.9052 45.3365 67.1924 46.772C65.8009 49.5745 64.0564 52.1422 62.3055 54.7117C57.0908 62.3647 52.1963 70.1692 50.0529 80.8636L50.0531 80.8633Z" fill="#E09900" stroke="white" stroke-width="2.72727" stroke-miterlimit="10"/>
<path fill-rule="evenodd" clip-rule="evenodd" d="M57.2727 35.8636C57.2727 34.0553 56.5065 32.3211 55.1426 31.0425C53.7787 29.7638 51.9289 29.0455 50 29.0455C48.0712 29.0455 46.2213 29.7638 44.8574 31.0425C43.4935 32.3211 42.7273 34.0553 42.7273 35.8636C42.7273 36.759 42.9154 37.6456 43.2809 38.4728C43.6464 39.3001 44.1821 40.0517 44.8574 40.6848C45.5328 41.3179 46.3345 41.8202 47.2169 42.1628C48.0992 42.5055 49.045 42.6818 50 42.6818C50.9551 42.6818 51.9008 42.5055 52.7832 42.1628C53.6655 41.8202 54.4673 41.3179 55.1426 40.6848C55.818 40.0517 56.3537 39.3001 56.7191 38.4728C57.0846 37.6456 57.2727 36.759 57.2727 35.8636" fill="white"/>
</svg>
