<svg width="100" height="100" viewBox="0 0 100 100" fill="none" xmlns="http://www.w3.org/2000/svg">
<path d="M97 50C97 75.9579 75.9568 97 50 97C24.0432 97 3 75.9568 3 50C3 24.0432 24.0432 3 50 3C75.9568 3 97 24.0432 97 50Z" fill="#E09900"/>
<path fill-rule="evenodd" clip-rule="evenodd" d="M32.9617 27.8945C35.8059 32.3643 38.2884 37.1139 41.1326 41.4721C36.6539 45.9977 40.4064 53.7632 41.0117 55.0488C44.583 61.1948 50.3337 65.2732 54.9946 63.8202C63.3477 76.5593 55.2968 63.9326 63.3477 76.8391C42.4045 86.6163 14.0157 31.5267 32.9617 27.8945Z" fill="white"/>
<path fill-rule="evenodd" clip-rule="evenodd" d="M34.9664 25.3894C34.1788 25.8924 33.9371 26.7867 34.4215 27.457C37.0239 31.5912 39.7482 35.782 42.4715 39.9162C43.0164 40.5865 43.9852 40.9221 44.7113 40.475C46.7094 39.4133 48.5857 38.4074 50.5224 37.4024C51.309 36.8995 51.5517 35.8936 51.1882 35.2233C48.4649 31.0882 45.7406 26.8982 43.0164 22.764C42.5933 22.0929 41.5036 21.8697 40.7775 22.3169C38.7794 23.3785 36.9031 24.3844 34.9664 25.3894Z" fill="white"/>
<path fill-rule="evenodd" clip-rule="evenodd" d="M56.9993 60.7564C56.2128 61.2593 55.9701 62.1536 56.4545 62.8239C59.0579 67.0706 61.6603 71.2606 64.3846 75.5072C64.7472 76.1775 65.8973 76.5122 66.6235 76.0659C68.6215 75.0043 70.4978 73.9984 72.4346 72.9925C73.2221 72.5454 73.4638 71.4837 73.1003 70.8134C70.377 66.5676 67.7736 62.3768 65.0503 58.131C64.6263 57.4598 63.5366 57.2367 62.8104 57.6838C60.8133 58.7455 58.9361 59.7514 56.9993 60.7564Z" fill="white"/>
</svg>
